<mxfile modified="2024-03-01T11:03:53.908Z" host="app.diagrams.net" agent="Mozilla/5.0 (Macintosh; Intel Mac OS X 10_15_7) AppleWebKit/537.36 (KHTML, like Gecko) Chrome/120.0.0.0 Safari/537.36" etag="8Ed_mnFzWmiZRaOnLr0P" version="23.1.7" type="github">
  <diagram id="Ht1M8jgEwFfnCIfOTk4-" name="Page-1">
    <mxGraphModel dx="1359" dy="2703" grid="1" gridSize="10" guides="1" tooltips="1" connect="1" arrows="1" fold="1" page="1" pageScale="1" pageWidth="1169" pageHeight="827" math="0" shadow="0">
      <root>
        <mxCell id="0" />
        <mxCell id="1" parent="0" />
        <mxCell id="2Jv3RAnAzek0QuueKrkY-2" value="&lt;font color=&quot;#000000&quot;&gt;AWS Cloud&lt;/font&gt;" style="sketch=0;outlineConnect=0;gradientColor=none;html=1;whiteSpace=wrap;fontSize=12;fontStyle=0;shape=mxgraph.aws4.group;grIcon=mxgraph.aws4.group_aws_cloud;strokeColor=default;fillColor=none;verticalAlign=top;align=left;spacingLeft=30;fontColor=#AAB7B8;strokeWidth=2;" vertex="1" parent="1">
          <mxGeometry x="289" y="-770" width="840" height="680" as="geometry" />
        </mxCell>
        <mxCell id="2Jv3RAnAzek0QuueKrkY-3" value="Client" style="sketch=0;outlineConnect=0;fontColor=#232F3E;gradientColor=none;strokeColor=#232F3E;fillColor=#ffffff;dashed=0;verticalLabelPosition=bottom;verticalAlign=top;align=center;html=1;fontSize=12;fontStyle=0;aspect=fixed;shape=mxgraph.aws4.resourceIcon;resIcon=mxgraph.aws4.client;" vertex="1" parent="1">
          <mxGeometry x="60" y="-490" width="60" height="60" as="geometry" />
        </mxCell>
        <mxCell id="2Jv3RAnAzek0QuueKrkY-20" style="edgeStyle=orthogonalEdgeStyle;rounded=0;orthogonalLoop=1;jettySize=auto;html=1;exitX=0;exitY=0.5;exitDx=0;exitDy=0;exitPerimeter=0;" edge="1" parent="1" source="2Jv3RAnAzek0QuueKrkY-4" target="2Jv3RAnAzek0QuueKrkY-3">
          <mxGeometry relative="1" as="geometry" />
        </mxCell>
        <mxCell id="2Jv3RAnAzek0QuueKrkY-4" value="" style="sketch=0;points=[[0,0,0],[0.25,0,0],[0.5,0,0],[0.75,0,0],[1,0,0],[0,1,0],[0.25,1,0],[0.5,1,0],[0.75,1,0],[1,1,0],[0,0.25,0],[0,0.5,0],[0,0.75,0],[1,0.25,0],[1,0.5,0],[1,0.75,0]];outlineConnect=0;fontColor=#232F3E;fillColor=#E7157B;strokeColor=#ffffff;dashed=0;verticalLabelPosition=bottom;verticalAlign=top;align=center;html=1;fontSize=12;fontStyle=0;aspect=fixed;shape=mxgraph.aws4.resourceIcon;resIcon=mxgraph.aws4.api_gateway;" vertex="1" parent="1">
          <mxGeometry x="380" y="-499" width="78" height="78" as="geometry" />
        </mxCell>
        <mxCell id="2Jv3RAnAzek0QuueKrkY-23" style="edgeStyle=orthogonalEdgeStyle;rounded=0;orthogonalLoop=1;jettySize=auto;html=1;exitX=0.5;exitY=1;exitDx=0;exitDy=0;exitPerimeter=0;" edge="1" parent="1" source="2Jv3RAnAzek0QuueKrkY-5">
          <mxGeometry relative="1" as="geometry">
            <mxPoint x="420" y="-500" as="targetPoint" />
          </mxGeometry>
        </mxCell>
        <mxCell id="2Jv3RAnAzek0QuueKrkY-5" value="" style="sketch=0;points=[[0,0,0],[0.25,0,0],[0.5,0,0],[0.75,0,0],[1,0,0],[0,1,0],[0.25,1,0],[0.5,1,0],[0.75,1,0],[1,1,0],[0,0.25,0],[0,0.5,0],[0,0.75,0],[1,0.25,0],[1,0.5,0],[1,0.75,0]];outlineConnect=0;fontColor=#232F3E;fillColor=#DD344C;strokeColor=#ffffff;dashed=0;verticalLabelPosition=bottom;verticalAlign=top;align=center;html=1;fontSize=12;fontStyle=0;aspect=fixed;shape=mxgraph.aws4.resourceIcon;resIcon=mxgraph.aws4.certificate_manager_3;" vertex="1" parent="1">
          <mxGeometry x="560" y="-680" width="78" height="78" as="geometry" />
        </mxCell>
        <mxCell id="2Jv3RAnAzek0QuueKrkY-22" style="edgeStyle=orthogonalEdgeStyle;rounded=0;orthogonalLoop=1;jettySize=auto;html=1;exitX=0;exitY=0.5;exitDx=0;exitDy=0;exitPerimeter=0;" edge="1" parent="1" source="2Jv3RAnAzek0QuueKrkY-6">
          <mxGeometry relative="1" as="geometry">
            <mxPoint x="460" y="-460.3333333333335" as="targetPoint" />
          </mxGeometry>
        </mxCell>
        <mxCell id="2Jv3RAnAzek0QuueKrkY-6" value="" style="sketch=0;points=[[0,0,0],[0.25,0,0],[0.5,0,0],[0.75,0,0],[1,0,0],[0,1,0],[0.25,1,0],[0.5,1,0],[0.75,1,0],[1,1,0],[0,0.25,0],[0,0.5,0],[0,0.75,0],[1,0.25,0],[1,0.5,0],[1,0.75,0]];outlineConnect=0;fontColor=#232F3E;fillColor=#ED7100;strokeColor=#ffffff;dashed=0;verticalLabelPosition=bottom;verticalAlign=top;align=center;html=1;fontSize=12;fontStyle=0;aspect=fixed;shape=mxgraph.aws4.resourceIcon;resIcon=mxgraph.aws4.lambda;" vertex="1" parent="1">
          <mxGeometry x="670" y="-499" width="78" height="78" as="geometry" />
        </mxCell>
        <mxCell id="2Jv3RAnAzek0QuueKrkY-25" style="edgeStyle=orthogonalEdgeStyle;rounded=0;orthogonalLoop=1;jettySize=auto;html=1;exitX=0;exitY=0.5;exitDx=0;exitDy=0;exitPerimeter=0;" edge="1" parent="1" source="2Jv3RAnAzek0QuueKrkY-7">
          <mxGeometry relative="1" as="geometry">
            <mxPoint x="750" y="-460.3333333333335" as="targetPoint" />
          </mxGeometry>
        </mxCell>
        <mxCell id="2Jv3RAnAzek0QuueKrkY-7" value="" style="sketch=0;points=[[0,0,0],[0.25,0,0],[0.5,0,0],[0.75,0,0],[1,0,0],[0,1,0],[0.25,1,0],[0.5,1,0],[0.75,1,0],[1,1,0],[0,0.25,0],[0,0.5,0],[0,0.75,0],[1,0.25,0],[1,0.5,0],[1,0.75,0]];outlineConnect=0;fontColor=#232F3E;fillColor=#C925D1;strokeColor=#ffffff;dashed=0;verticalLabelPosition=bottom;verticalAlign=top;align=center;html=1;fontSize=12;fontStyle=0;aspect=fixed;shape=mxgraph.aws4.resourceIcon;resIcon=mxgraph.aws4.rds;" vertex="1" parent="1">
          <mxGeometry x="990" y="-499" width="78" height="78" as="geometry" />
        </mxCell>
        <mxCell id="2Jv3RAnAzek0QuueKrkY-8" value="&lt;font style=&quot;font-size: 18px; font-weight: normal;&quot;&gt;Amazon API gateway&lt;/font&gt;" style="text;strokeColor=none;fillColor=none;html=1;fontSize=24;fontStyle=1;verticalAlign=middle;align=center;" vertex="1" parent="1">
          <mxGeometry x="369" y="-413" width="100" height="40" as="geometry" />
        </mxCell>
        <mxCell id="2Jv3RAnAzek0QuueKrkY-9" value="&lt;font style=&quot;font-size: 18px; font-weight: normal;&quot;&gt;AWS Lambda&lt;/font&gt;" style="text;strokeColor=none;fillColor=none;html=1;fontSize=24;fontStyle=1;verticalAlign=middle;align=center;" vertex="1" parent="1">
          <mxGeometry x="659" y="-413" width="100" height="40" as="geometry" />
        </mxCell>
        <mxCell id="2Jv3RAnAzek0QuueKrkY-10" value="&lt;font style=&quot;font-size: 18px; font-weight: normal;&quot;&gt;AWS RDS&lt;/font&gt;" style="text;strokeColor=none;fillColor=none;html=1;fontSize=24;fontStyle=1;verticalAlign=middle;align=center;" vertex="1" parent="1">
          <mxGeometry x="990" y="-413" width="100" height="40" as="geometry" />
        </mxCell>
        <mxCell id="2Jv3RAnAzek0QuueKrkY-11" value="&lt;font style=&quot;font-size: 18px; font-weight: normal;&quot;&gt;AWS Certificate manager&lt;/font&gt;" style="text;strokeColor=none;fillColor=none;html=1;fontSize=24;fontStyle=1;verticalAlign=middle;align=center;" vertex="1" parent="1">
          <mxGeometry x="560" y="-720" width="100" height="40" as="geometry" />
        </mxCell>
        <mxCell id="2Jv3RAnAzek0QuueKrkY-18" style="edgeStyle=orthogonalEdgeStyle;rounded=0;orthogonalLoop=1;jettySize=auto;html=1;exitX=1;exitY=0.5;exitDx=0;exitDy=0;exitPerimeter=0;entryX=0;entryY=0.5;entryDx=0;entryDy=0;entryPerimeter=0;fillColor=#dae8fc;strokeColor=#6c8ebf;strokeWidth=2;" edge="1" parent="1" source="2Jv3RAnAzek0QuueKrkY-4" target="2Jv3RAnAzek0QuueKrkY-6">
          <mxGeometry relative="1" as="geometry" />
        </mxCell>
        <mxCell id="2Jv3RAnAzek0QuueKrkY-19" style="edgeStyle=orthogonalEdgeStyle;rounded=0;orthogonalLoop=1;jettySize=auto;html=1;exitX=1;exitY=0.5;exitDx=0;exitDy=0;exitPerimeter=0;entryX=0;entryY=0.5;entryDx=0;entryDy=0;entryPerimeter=0;strokeWidth=2;fillColor=#dae8fc;strokeColor=#6c8ebf;" edge="1" parent="1" source="2Jv3RAnAzek0QuueKrkY-6" target="2Jv3RAnAzek0QuueKrkY-7">
          <mxGeometry relative="1" as="geometry" />
        </mxCell>
        <mxCell id="2Jv3RAnAzek0QuueKrkY-21" style="edgeStyle=orthogonalEdgeStyle;rounded=0;orthogonalLoop=1;jettySize=auto;html=1;entryX=0;entryY=0.5;entryDx=0;entryDy=0;entryPerimeter=0;fillColor=#dae8fc;strokeColor=#6c8ebf;strokeWidth=2;" edge="1" parent="1" source="2Jv3RAnAzek0QuueKrkY-3" target="2Jv3RAnAzek0QuueKrkY-4">
          <mxGeometry relative="1" as="geometry" />
        </mxCell>
        <mxCell id="2Jv3RAnAzek0QuueKrkY-24" style="edgeStyle=orthogonalEdgeStyle;rounded=0;orthogonalLoop=1;jettySize=auto;html=1;exitX=0.5;exitY=0;exitDx=0;exitDy=0;exitPerimeter=0;entryX=0.5;entryY=1;entryDx=0;entryDy=0;entryPerimeter=0;strokeWidth=2;fillColor=#dae8fc;strokeColor=#6c8ebf;" edge="1" parent="1" source="2Jv3RAnAzek0QuueKrkY-4" target="2Jv3RAnAzek0QuueKrkY-5">
          <mxGeometry relative="1" as="geometry" />
        </mxCell>
        <mxCell id="2Jv3RAnAzek0QuueKrkY-26" value="" style="endArrow=none;dashed=1;html=1;dashPattern=1 3;strokeWidth=2;rounded=0;" edge="1" parent="1">
          <mxGeometry width="50" height="50" relative="1" as="geometry">
            <mxPoint x="610" y="-570" as="sourcePoint" />
            <mxPoint x="760" y="-570" as="targetPoint" />
          </mxGeometry>
        </mxCell>
        <mxCell id="2Jv3RAnAzek0QuueKrkY-27" value="Enable SSL / TLS custom certificate" style="text;html=1;align=center;verticalAlign=middle;whiteSpace=wrap;rounded=0;" vertex="1" parent="1">
          <mxGeometry x="759" y="-590" width="201" height="30" as="geometry" />
        </mxCell>
        <mxCell id="2Jv3RAnAzek0QuueKrkY-28" value="" style="endArrow=none;dashed=1;html=1;dashPattern=1 3;strokeWidth=2;rounded=0;" edge="1" parent="1">
          <mxGeometry width="50" height="50" relative="1" as="geometry">
            <mxPoint x="559" y="-320" as="sourcePoint" />
            <mxPoint x="558.67" y="-450" as="targetPoint" />
          </mxGeometry>
        </mxCell>
        <mxCell id="2Jv3RAnAzek0QuueKrkY-29" value="Send HTTP requests" style="text;html=1;align=center;verticalAlign=middle;whiteSpace=wrap;rounded=0;" vertex="1" parent="1">
          <mxGeometry x="459" y="-310" width="201" height="30" as="geometry" />
        </mxCell>
        <mxCell id="2Jv3RAnAzek0QuueKrkY-30" value="" style="endArrow=none;dashed=1;html=1;dashPattern=1 3;strokeWidth=2;rounded=0;" edge="1" parent="1">
          <mxGeometry width="50" height="50" relative="1" as="geometry">
            <mxPoint x="880.3299999999999" y="-320" as="sourcePoint" />
            <mxPoint x="880" y="-450" as="targetPoint" />
          </mxGeometry>
        </mxCell>
        <mxCell id="2Jv3RAnAzek0QuueKrkY-31" value="Connect to RDS for data" style="text;html=1;align=center;verticalAlign=middle;whiteSpace=wrap;rounded=0;" vertex="1" parent="1">
          <mxGeometry x="789" y="-310" width="201" height="30" as="geometry" />
        </mxCell>
      </root>
    </mxGraphModel>
  </diagram>
</mxfile>
